<?xml version="1.0" encoding="iso-8859-1"?>
<!-- Generator: Adobe Illustrator 16.0.0, SVG Export Plug-In . SVG Version: 6.00 Build 0)  -->
<!DOCTYPE svg PUBLIC "-//W3C//DTD SVG 1.1//EN" "http://www.w3.org/Graphics/SVG/1.1/DTD/svg11.dtd">
<svg version="1.1" id="Layer_1" xmlns="http://www.w3.org/2000/svg" xmlns:xlink="http://www.w3.org/1999/xlink" x="0px" y="0px"
	 width="800px" height="800px" viewBox="0 0 800 800" style="enable-background:new 0 0 800 800;" xml:space="preserve">
<path style="fill:#4C4C4C;" d="M414.856,396.623h-18.354l4.014-4.026c1.561-1.564,1.557-4.097-0.008-5.657s-4.098-1.556-5.656,0.008
	l-10.82,10.852c-1.558,1.561-1.558,4.087,0,5.649l10.82,10.852c0.781,0.783,1.807,1.176,2.832,1.176c1.021,0,2.044-0.39,2.824-1.168
	c1.564-1.561,1.568-4.092,0.008-5.656l-4.017-4.029h18.356c2.209,0,4-1.791,4-4S417.065,396.623,414.856,396.623z"/>
</svg>
