<?xml version="1.0" encoding="iso-8859-1"?>
<!-- Generator: Adobe Illustrator 16.0.0, SVG Export Plug-In . SVG Version: 6.00 Build 0)  -->
<!DOCTYPE svg PUBLIC "-//W3C//DTD SVG 1.1//EN" "http://www.w3.org/Graphics/SVG/1.1/DTD/svg11.dtd">
<svg version="1.1" id="Layer_1" xmlns="http://www.w3.org/2000/svg" xmlns:xlink="http://www.w3.org/1999/xlink" x="0px" y="0px"
	 width="800px" height="800px" viewBox="0 0 800 800" style="enable-background:new 0 0 800 800;" xml:space="preserve">
<path style="fill:#4C4C4C;" d="M32.062,11.171l-18.35-0.345l4.089-3.95c1.589-1.535,1.633-4.067,0.098-5.656
	c-1.535-1.589-4.067-1.633-5.655-0.098L1.222,11.77c-1.587,1.531-1.634,4.057-0.106,5.648L11.73,28.47
	c0.767,0.798,1.784,1.21,2.81,1.229c1.021,0.02,2.051-0.351,2.846-1.114c1.594-1.531,1.645-4.062,0.114-5.655l-3.94-4.104
	l18.354,0.345c2.208,0.042,4.032-1.715,4.074-3.924C36.028,13.037,34.271,11.213,32.062,11.171z"/>
</svg>
