<?xml version="1.0" encoding="iso-8859-1"?>
<!-- Generator: Adobe Illustrator 16.0.0, SVG Export Plug-In . SVG Version: 6.00 Build 0)  -->
<!DOCTYPE svg PUBLIC "-//W3C//DTD SVG 1.1//EN" "http://www.w3.org/Graphics/SVG/1.1/DTD/svg11.dtd">
<svg version="1.1" id="Layer_1" xmlns="http://www.w3.org/2000/svg" xmlns:xlink="http://www.w3.org/1999/xlink" x="0px" y="0px"
	 width="40px" height="30px" viewBox="0 0 40 30" style="enable-background:new 0 0 40 30;" xml:space="preserve">
<path style="fill:#4C4C4C;" d="M32.968,11.47l-18.352-0.345l4.089-3.95c1.589-1.535,1.633-4.067,0.098-5.656
	c-1.535-1.589-4.067-1.633-5.655-0.098L2.126,12.068c-1.587,1.531-1.634,4.06-0.106,5.65l10.615,11.053
	c0.767,0.797,1.784,1.209,2.81,1.229c1.021,0.02,2.051-0.352,2.846-1.115c1.594-1.531,1.645-4.061,0.114-5.654l-3.94-4.105
	l18.354,0.346c2.209,0.041,4.033-1.715,4.074-3.926C36.933,13.335,35.177,11.511,32.968,11.47z"/>
</svg>
